<?xml version="1.0" encoding="utf-8"?>
<!-- Generator: Adobe Illustrator 23.0.3, SVG Export Plug-In . SVG Version: 6.00 Build 0)  -->
<svg version="1.1" id="Layer_1" xmlns="http://www.w3.org/2000/svg" xmlns:xlink="http://www.w3.org/1999/xlink" x="0px" y="0px"
	 viewBox="0 0 1366 768" style="enable-background:new 0 0 1366 768;" xml:space="preserve">
<g>
	<g>
		<path d="M389.8,364.3c1.8-3.5,3.4-5.9,4.4-8.4c6-15.3,12-30.6,17.6-46.1c2.4-6.5,0.2-12.2-5.4-16.3c-3.2-2.4-4-5.1-2.1-8.7
			c1.9-3.5,4.8-3.5,8.1-2.6c22.3,5.9,44.7,6.1,67.1,0.6c1.6-0.4,4.8,1.1,5.5,2.6c1,2,1.5,6.2,0.4,7.1c-12.5,9.8-13.3,23.7-13.8,37.6
			c-1.1,28.1,0.6,55.9,9.6,82.9c3.4,10.1,8.6,18.8,17.8,24.5c3.7,2.3,5,4.9,3.1,9.1c-2,4.5-5.4,3.9-9.2,3.4
			c-12.3-1.6-24.7-4.2-37-4.2c-11.7,0.1-23.3,2.9-35,4.8c-2.8,0.5-5.9,1.2-6.9-1.8c-0.9-2.7-0.1-5.9,0-8.8c0-0.1,0.2-0.3,0.3-0.4
			c11.5-9.8,12.4-23.4,12.8-37c0.6-22.7-0.4-45.3-4.9-67.6c-0.1-0.6-0.3-1.1-1.1-1.9c-20,36.4-31.6,76-45.3,115.3
			c-14.3-38.4-25.7-77.5-41.2-115.1c-0.4,0-0.9,0-1.3,0c-0.4,1.1-1,2.2-1.1,3.4c-3.8,23.4-6.9,46.8-4.7,70.6
			c1.1,12.1,4.4,23.3,15.3,30.6c0.8,0.5,1.5,1.3,2.3,2c3.3,2.9,3,6.6,0.9,9.5c-1.1,1.5-4.6,2.4-6.7,2c-15-3-30-4.1-45,0.1
			c-3.3,0.9-6.3,0.6-8-3c-1.6-3.2-1.5-6.3,1.6-8.5c14.8-10.4,19.4-26.1,22.1-42.7c3.6-21.5,5.5-43.3,5.1-65.1
			c-0.3-14.1-2.5-27.5-12.6-38.5c-2.7-2.9-2.9-6.2-0.7-9.6c2.2-3.3,5-3,8.4-2c17.4,5,35,6.4,52.8,2.1c3.1-0.7,6-1.9,9-2.8
			c2.9-0.9,5.2-0.4,6.8,2.4c1.5,2.7,2.2,5.2-0.3,7.7c-6.2,6.1-6.1,13.4-3.6,20.9c1.7,5.4,4,10.6,6.3,15.8
			c4.6,10.3,7.7,20.9,7.6,32.3C388.9,361.2,389.3,362.1,389.8,364.3z"/>
		<path d="M832.1,334.2c-20,37.2-31.3,77-45.2,116.2c-14.4-38.5-25.6-77.7-41.3-115.3c-0.5,0-1,0.1-1.6,0.1c-0.7,3.5-1.5,7-2,10.5
			c-3.2,22.9-6.4,45.9-2.7,69.1c1.6,10.2,5.7,18.7,14.3,24.8c3.7,2.6,6,5.7,4.1,10.6c-1.1,2.7-2.6,4-5.7,3.4
			c-5.2-1-10.5-1.7-15.8-2.4c-10-1.5-19.9-0.6-29.7,2c-4.2,1.1-8.3,1.1-9.7-4c-0.5-1.9-0.1-5.3,1.2-6.2c16.5-12,20.9-29.7,23.7-48.3
			c3.3-21.8,5.2-43.7,4.2-65.7c-0.5-12-3.3-23.4-11.8-32.7c-0.5-0.5-0.8-1.1-1.2-1.6c-2.2-3-1.8-5.9,0.2-8.8c1.9-2.9,4.5-3,7.5-2.1
			c15.4,4.6,31,6.2,46.9,3.6c4.9-0.8,9.7-2.4,14.4-3.8c3-0.9,5.9-1.5,7.9,1.9c1.9,3,2.1,5.9-0.6,8.6c-5.5,5.4-5.7,12-3.6,18.6
			c2.3,7.3,6,14.1,8.2,21.4c2.6,8.7,4.2,17.7,6.1,26.6c0.3,1.4,0.3,2.8,1.7,4.5c2.6-5.4,5.5-10.8,7.7-16.4
			c4.7-12.2,9.3-24.6,13.5-37c2.1-6.2,0.3-11.9-5.1-16c-3-2.3-4.4-4.8-2.6-8.6c2-4.1,5.2-3.9,8.9-2.9c22,5.9,44.1,6,66.1,0.5
			c3.3-0.8,5.1,0.5,6.5,3.1c1.3,2.4,2.6,5.1-0.2,7.2c-10.9,8-12.8,19.9-13.4,32c-1.5,28.1-0.3,56,7.7,83.2c3.5,12.1,9,23,20.3,29.9
			c3.3,2,3.9,4.6,2.5,8.1c-1.5,3.7-4.2,4.9-8,4.1c-6.5-1.3-13-2.9-19.6-3.9c-18.2-2.6-36.2-0.3-53.9,4.2c-2.9,0.7-5.8,1.3-6.8-1.8
			c-0.8-2.7-0.2-5.9,0-8.8c0.1-0.8,1.2-1.6,1.9-2.3c6.7-6.1,9.5-13.9,10.3-22.6c2.1-23.7,1.1-47.3-2.4-70.8
			c-0.5-3.5-1.1-6.9-1.7-10.3C833.3,335.7,832.9,335.5,832.1,334.2z"/>
		<path d="M570.4,415.7c0.5,4,2.1,8.1,4,11.7c9.3,17.8,32.9,18.5,43.7,1.6c8.9-13.9,9.3-44.3-5-58.6c-1.2-1.2-2.8-2.4-3.2-3.8
			c-0.5-2-0.5-4.6,0.5-6.4c0.7-1.2,3.3-2.2,4.9-2c6.7,1.1,13.3,2.9,20.1,4c13.6,2.3,27.2,2.5,40.4-2.4c3.1-1.1,5.5-0.8,7.3,2.1
			c1.7,2.7,2,5.4-0.5,7.7c-12.4,11.9-12.4,27.3-11.8,42.8c0.4,10.4,3.8,19.9,10.2,28.2c2.5,3.3,2.1,6.5-0.1,9.7
			c-2.3,3.4-5.2,2.1-8,1.1c-15.2-5.4-30.7-4.5-46.3-2.1c-11.8,1.8-23.7,3.4-35.6,4.2c-29.4,1.9-65.7-22.1-75.9-55.5
			c-7.3-23.9-6.7-47.9,2.9-71c14.1-33.8,46.9-56.9,92.7-45.1c7.9,2,15.8,3.8,23.8,5.6c10.9,2.5,21.1,0.3,31.1-4
			c2.3-1,4.3-1.8,5.6,1.5c4.3,10.6,0.5,30-7.7,38c-11.4,11.2-31.4,10.9-43.3-1.3c-5.1-5.2-8.8-11.6-13.4-17.4
			c-2.5-3.1-5-6.3-8.1-8.7c-8.8-6.9-21.2-4.6-25.1,5.7c-3.5,9.3-5.2,19.6-6.2,29.6c-1,10.7-0.2,21.6-0.2,32.5"/>
		<path d="M1080.1,283.9c3.4,19.2-7,44.5-37,46c-11.3,0.5-11.4,0.6-11.3,12c0.3,21.5,0.5,43,1.1,64.4c0.4,13.9,3.9,26.7,14.8,36.4
			c2.9,2.6,2.7,5.5,1,8.6c-1.7,3-4,3.2-7.2,2.3c-22.2-6.6-44.6-6.9-67.1-1.7c-4.2,1-7.1,0.3-9.1-3.6c-2.1-4.1,0.6-6.3,3.5-8.1
			c11.8-7.4,14.8-19.2,15.8-31.8c0.9-11.6,1.1-23.3,1.3-34.9c0.2-15.5-0.1-31,0.1-46.5c0-4-1.3-5.5-5.1-6.4
			c-11.3-2.4-22.5-4.5-34-1.3c-11.8,3.3-19.4,12.6-18.7,23.3c0.4,6,5.8,11,11,9.2c2.3-0.8,4.9-3.1,5.7-5.4c0.5-1.4-1.8-4-3-6
			c-0.4-0.6-1.2-1-1.8-1.5c2.2-6.3,8.2-9.5,16.1-8.8c7.5,0.6,13,5.8,14.3,13.2c3.3,19.4-12.5,32.2-32.7,26.4
			c-12.9-3.7-21.8-15.1-23.2-30.1c-2.7-28,16.7-52,44.9-55.7c20.1-2.7,39.9-0.8,59.7,2.4c9.5,1.5,19.1,2.7,28.7,3.5
			c9.9,0.8,19.5-1.1,28.8-4.9C1077.5,284.4,1078.6,284.2,1080.1,283.9z"/>
	</g>
</g>
</svg>
